<svg width="76" height="23" viewBox="0 0 76 23" fill="none" xmlns="http://www.w3.org/2000/svg">
  <ellipse cx="35.8278" cy="3.14972" rx="1.08375" ry="1.12642" transform="rotate(10 35.8278 3.14972)" fill="#9D489D"/>
  <line x1="34.6022" y1="0.870155" x2="35.4068" y2="1.88305" stroke="#030303" stroke-width="0.8" stroke-linecap="round" stroke-linejoin="round"/>
  <line x1="36.227" y1="0.766716" x2="36.0448" y2="1.79997" stroke="#030303" stroke-width="0.8" stroke-linecap="round" stroke-linejoin="round"/>
  <line x1="0.4" y1="-0.4" x2="0.924858" y2="-0.4" transform="matrix(-0.683279 0.730157 -0.716631 -0.697452 36.6949 4.25713)" stroke="#030303" stroke-width="0.8" stroke-linecap="round"/>
  <ellipse cx="1.79818" cy="1.12055" rx="1.79818" ry="1.12055" transform="matrix(0.98359 -0.18042 0.166978 0.985961 38.5717 3.19035)" fill="#9D489D"/>
  <line x1="0.4" y1="-0.4" x2="0.893432" y2="-0.4" transform="matrix(-0.198422 0.980117 -0.979713 -0.200405 38.834 4.82356)" stroke="#030303" stroke-width="0.8" stroke-linecap="round"/>
  <line x1="0.4" y1="-0.4" x2="0.767098" y2="-0.4" transform="matrix(0.140435 0.99009 -0.98822 0.153039 39.8397 5.18729)" stroke="#030303" stroke-width="0.8" stroke-linecap="round"/>
  <line x1="37.8251" y1="5.20253" x2="37.7071" y2="5.87156" stroke="#030303" stroke-width="0.8" stroke-linecap="round"/>
  <ellipse cx="35.8278" cy="3.14972" rx="1.08375" ry="1.12642" transform="rotate(10 35.8278 3.14972)" fill="#9D489D"/>
  <circle cx="37.093" cy="4.45957" r="0.613638" transform="rotate(10 37.093 4.45957)" fill="#9D489D"/>
  <line x1="34.6022" y1="0.870155" x2="35.4068" y2="1.88305" stroke="#030303" stroke-width="0.8" stroke-linecap="round" stroke-linejoin="round"/>
  <line x1="36.227" y1="0.766716" x2="36.0448" y2="1.79997" stroke="#030303" stroke-width="0.8" stroke-linecap="round" stroke-linejoin="round"/>
  <line x1="0.4" y1="-0.4" x2="0.924858" y2="-0.4" transform="matrix(-0.683279 0.730157 -0.716631 -0.697452 36.6949 4.25713)" stroke="#030303" stroke-width="0.8" stroke-linecap="round"/>
  <ellipse cx="1.79818" cy="1.12055" rx="1.79818" ry="1.12055" transform="matrix(0.98359 -0.18042 0.166978 0.985961 38.5717 3.19035)" fill="#9D489D"/>
  <line x1="0.4" y1="-0.4" x2="0.893432" y2="-0.4" transform="matrix(-0.198422 0.980117 -0.979713 -0.200405 38.834 4.82356)" stroke="#030303" stroke-width="0.8" stroke-linecap="round"/>
  <line x1="0.4" y1="-0.4" x2="0.767098" y2="-0.4" transform="matrix(0.140435 0.99009 -0.98822 0.153039 39.8397 5.18729)" stroke="#030303" stroke-width="0.8" stroke-linecap="round"/>
  <circle cx="38.24" cy="4.78644" r="0.736365" transform="rotate(10 38.24 4.78644)" fill="#9D489D"/>
  <line x1="37.8251" y1="5.20253" x2="37.7071" y2="5.87156" stroke="#030303" stroke-width="0.8" stroke-linecap="round"/>
  <ellipse cx="72.296" cy="18.8488" rx="1.08375" ry="1.37673" transform="rotate(-170 72.296 18.8488)" fill="#9D489D"/>
  <line x1="0.4" y1="-0.4" x2="1.90973" y2="-0.4" transform="matrix(-0.540605 -0.841277 0.718554 -0.695471 74.0065 21.63)" stroke="#1A1717" stroke-width="0.8" stroke-linecap="round" stroke-linejoin="round"/>
  <line x1="71.7881" y1="21.8481" x2="72.0416" y2="20.4101" stroke="#1A1717" stroke-width="0.8" stroke-linecap="round" stroke-linejoin="round"/>
  <line x1="0.4" y1="-0.4" x2="1.13738" y2="-0.4" transform="matrix(0.616683 -0.787211 0.646285 0.763097 71.4651 17.5357)" stroke="#1A1717" stroke-width="0.8" stroke-linecap="round"/>
  <ellipse cx="1.85131" cy="1.34381" rx="1.85131" ry="1.34381" transform="matrix(-0.968422 0.249316 -0.108925 -0.99405 69.5351 18.9037)" fill="#9D489D"/>
  <line x1="0.4" y1="-0.4" x2="1.18086" y2="-0.4" transform="matrix(0.193928 -0.981016 0.978483 0.206328 69.3332 16.9284)" stroke="#1A1717" stroke-width="0.8" stroke-linecap="round"/>
  <line x1="0.4" y1="-0.4" x2="1.00358" y2="-0.4" transform="matrix(-0.0862708 -0.996272 0.975937 -0.218052 68.3346 16.5245)" stroke="#1A1717" stroke-width="0.8" stroke-linecap="round"/>
  <line x1="70.3479" y1="16.517" x2="70.5229" y2="15.5242" stroke="#1A1717" stroke-width="0.8" stroke-linecap="round"/>
  <ellipse cx="72.296" cy="18.8488" rx="1.08375" ry="1.37673" transform="rotate(-170 72.296 18.8488)" fill="#9D489D"/>
  <ellipse cx="71.0721" cy="17.3047" rx="0.613638" ry="0.75" transform="rotate(-170 71.0721 17.3047)" fill="#9D489D"/>
  <line x1="0.4" y1="-0.4" x2="1.90973" y2="-0.4" transform="matrix(-0.540605 -0.841277 0.718554 -0.695471 74.0065 21.63)" stroke="#1A1717" stroke-width="0.8" stroke-linecap="round" stroke-linejoin="round"/>
  <line x1="71.7881" y1="21.8481" x2="72.0416" y2="20.4101" stroke="#1A1717" stroke-width="0.8" stroke-linecap="round" stroke-linejoin="round"/>
  <line x1="0.4" y1="-0.4" x2="1.13738" y2="-0.4" transform="matrix(0.616683 -0.787211 0.646285 0.763097 71.4651 17.5357)" stroke="#1A1717" stroke-width="0.8" stroke-linecap="round"/>
  <ellipse cx="1.85131" cy="1.34381" rx="1.85131" ry="1.34381" transform="matrix(-0.968422 0.249316 -0.108925 -0.99405 69.5351 18.9037)" fill="#9D489D"/>
  <line x1="0.4" y1="-0.4" x2="1.18086" y2="-0.4" transform="matrix(0.193928 -0.981016 0.978483 0.206328 69.3332 16.9284)" stroke="#1A1717" stroke-width="0.8" stroke-linecap="round"/>
  <line x1="0.4" y1="-0.4" x2="1.00358" y2="-0.4" transform="matrix(-0.0862708 -0.996272 0.975937 -0.218052 68.3346 16.5245)" stroke="#1A1717" stroke-width="0.8" stroke-linecap="round"/>
  <line x1="70.3479" y1="16.517" x2="70.5229" y2="15.5242" stroke="#1A1717" stroke-width="0.8" stroke-linecap="round"/>
  <ellipse cx="69.9298" cy="16.951" rx="0.736365" ry="0.9" transform="rotate(-170 69.9298 16.951)" fill="#9D489D"/>
  <path d="M2.89041 18.36C2.89041 18.17 2.78708 18.075 2.58041 18.075H2.16541V20.48H2.58041C2.78708 20.48 2.89041 20.3733 2.89041 20.16V18.36ZM1.56541 17.575H2.65541C2.92208 17.575 3.12708 17.6417 3.27041 17.775C3.41708 17.905 3.49041 18.0933 3.49041 18.34V20.205C3.49041 20.735 3.22208 21 2.68541 21H1.56541V17.575ZM6.9324 21L6.7674 20.145H5.9974L5.8374 21H5.2624L5.9724 17.575H6.8074L7.5124 21H6.9324ZM6.0924 19.635H6.6674L6.3774 18.115L6.0924 19.635ZM10.971 17.575V18.1H10.336V21H9.73104V18.1H9.09604V17.575H10.971ZM14.2244 21L14.0594 20.145H13.2894L13.1294 21H12.5544L13.2644 17.575H14.0994L14.8044 21H14.2244ZM13.3844 19.635H13.9594L13.6694 18.115L13.3844 19.635ZM16.468 18.335C16.468 18.085 16.5514 17.8917 16.718 17.755C16.8847 17.6183 17.123 17.55 17.433 17.55C17.7464 17.55 17.9897 17.5817 18.163 17.645V18.22C17.9697 18.1433 17.7414 18.105 17.478 18.105C17.2147 18.105 17.083 18.205 17.083 18.405V18.54C17.083 18.64 17.1014 18.7183 17.138 18.775C17.1747 18.8283 17.2464 18.8833 17.353 18.94L17.928 19.265C18.198 19.4117 18.333 19.635 18.333 19.935V20.23C18.333 20.4833 18.2414 20.68 18.058 20.82C17.8747 20.9567 17.613 21.025 17.273 21.025C16.933 21.025 16.678 20.9883 16.508 20.915V20.335C16.7214 20.425 16.963 20.47 17.233 20.47C17.563 20.47 17.728 20.3667 17.728 20.16V20.03C17.728 19.9433 17.7097 19.8767 17.673 19.83C17.6397 19.78 17.5764 19.73 17.483 19.68L16.933 19.38C16.623 19.21 16.468 18.965 16.468 18.645V18.335ZM21.6626 17.575H22.2726V21H21.6626V19.585H20.8276V21H20.2226V17.575H20.8276V19.05H21.6626V17.575ZM24.3105 17.575H25.9555V18.1H24.9105V19.005H25.8155V19.53H24.9105V20.475H25.9555V21H24.3105V17.575ZM27.8711 17.575H29.5161V18.1H28.4711V19.005H29.3761V19.53H28.4711V20.475H29.5161V21H27.8711V17.575ZM33.0716 17.575V18.1H32.4366V21H31.8316V18.1H31.1966V17.575H33.0716ZM34.72 18.335C34.72 18.085 34.8033 17.8917 34.97 17.755C35.1366 17.6183 35.375 17.55 35.685 17.55C35.9983 17.55 36.2416 17.5817 36.415 17.645V18.22C36.2216 18.1433 35.9933 18.105 35.73 18.105C35.4666 18.105 35.335 18.205 35.335 18.405V18.54C35.335 18.64 35.3533 18.7183 35.39 18.775C35.4266 18.8283 35.4983 18.8833 35.605 18.94L36.18 19.265C36.45 19.4117 36.585 19.635 36.585 19.935V20.23C36.585 20.4833 36.4933 20.68 36.31 20.82C36.1266 20.9567 35.865 21.025 35.525 21.025C35.185 21.025 34.93 20.9883 34.76 20.915V20.335C34.9733 20.425 35.215 20.47 35.485 20.47C35.815 20.47 35.98 20.3667 35.98 20.16V20.03C35.98 19.9433 35.9616 19.8767 35.925 19.83C35.8916 19.78 35.8283 19.73 35.735 19.68L35.185 19.38C34.875 19.21 34.72 18.965 34.72 18.645V18.335Z" fill="#090909"/>
  <path fill-rule="evenodd" clip-rule="evenodd" d="M58.7641 17.3165V16.2157C58.8143 16.2444 58.8878 16.2786 58.9845 16.3182C59.0168 16.3314 59.0491 16.3443 59.0816 16.3568C59.2183 16.4098 59.3778 16.438 59.56 16.4412C59.5723 16.4415 59.5845 16.4415 59.5967 16.4415C59.7199 16.4426 59.8426 16.4257 59.9608 16.3913C60.1121 16.3465 60.2507 16.267 60.3659 16.1593C60.4342 16.0942 60.496 16.0225 60.5502 15.9453C60.6587 15.794 60.7666 15.5988 60.8738 15.3595C60.9058 15.288 60.9364 15.2158 60.9657 15.1431L61.2762 14.3528L58.4254 7.02822H59.7096L61.8689 12.8004H61.883L64.0423 7.02822H65.2983L61.9818 15.4395C61.9018 15.6452 61.8126 15.8472 61.7145 16.045C61.4977 16.4782 61.2669 16.8056 61.0221 17.0272C60.674 17.3424 60.2553 17.5 59.7661 17.5C59.6148 17.5003 59.4637 17.4895 59.3141 17.4677C59.293 17.4646 59.272 17.4612 59.251 17.4577C59.0863 17.4294 58.924 17.3824 58.7641 17.3165ZM1 12.4335L2.14314 12.2359C2.21841 12.6122 2.41599 12.9368 2.73589 13.2097C2.92386 13.3673 3.14501 13.4804 3.38282 13.5406C3.57843 13.5928 3.79558 13.6189 4.03427 13.6189C4.22482 13.6201 4.41497 13.6013 4.60161 13.5629C4.82501 13.5174 5.0389 13.4337 5.23387 13.3155C5.54708 13.1231 5.71135 12.852 5.72669 12.5021C5.72746 12.4839 5.72784 12.4657 5.72782 12.4476C5.72981 12.2623 5.68173 12.0799 5.58866 11.9196C5.49558 11.7594 5.36096 11.6272 5.19901 11.5372C5.06221 11.4508 4.89892 11.3765 4.70915 11.3145C4.54821 11.2628 4.38405 11.2217 4.21774 11.1915L3.3004 11.0222C3.0398 10.9771 2.78465 10.9048 2.53915 10.8064C2.25326 10.6923 1.98829 10.5315 1.75504 10.3306C1.42601 10.0449 1.21816 9.64458 1.17373 9.21107C1.16118 9.10961 1.155 9.00747 1.15524 8.90524C1.15282 8.66652 1.19762 8.42969 1.28706 8.20834C1.3482 8.06072 1.42972 7.92239 1.52923 7.79738C1.7223 7.55588 1.96156 7.35528 2.23304 7.20732C2.32964 7.15377 2.4292 7.10575 2.53125 7.06351C2.87444 6.92255 3.23817 6.83801 3.60835 6.81314C3.70782 6.80592 3.80752 6.80235 3.90726 6.80242C4.21259 6.80104 4.51705 6.835 4.81457 6.90361C4.93491 6.9318 5.05367 6.96633 5.17036 7.00706C5.56082 7.14348 5.89012 7.35988 6.15826 7.65625C6.32196 7.83983 6.44789 8.05385 6.52887 8.28611C6.5888 8.45245 6.63217 8.63455 6.65899 8.83242L6.65927 8.83467L5.55846 9.00403C5.52881 8.86805 5.4823 8.7363 5.42002 8.61183C5.31843 8.40626 5.15778 8.23569 4.95867 8.12197C4.7182 7.98671 4.45233 7.90271 4.1778 7.87528C4.08795 7.86559 3.99763 7.86078 3.90726 7.86089C3.73518 7.85986 3.56344 7.87627 3.39468 7.90986C3.18697 7.95059 2.98793 8.02714 2.80645 8.13609C2.50538 8.31955 2.35484 8.57123 2.35484 8.89113C2.35227 9.00935 2.37491 9.12676 2.42124 9.23556C2.46757 9.34436 2.53653 9.44204 2.62355 9.52211C2.64599 9.54331 2.66934 9.56351 2.69355 9.58266C2.7758 9.64642 2.86455 9.70134 2.95831 9.74651C3.13867 9.83542 3.36287 9.91182 3.63093 9.9757C3.67586 9.98639 3.72093 9.9965 3.76613 10.006L4.81048 10.2177C5.47849 10.3495 5.99596 10.5917 6.3629 10.9446C6.61671 11.1911 6.78949 11.509 6.85826 11.8561C6.89609 12.0367 6.91454 12.2208 6.9133 12.4052C6.9153 12.6356 6.8795 12.8647 6.80731 13.0835C6.74406 13.2709 6.65119 13.4469 6.53225 13.6048C6.32812 13.8744 6.06951 14.0979 5.77326 14.2608C5.68518 14.3102 5.59465 14.355 5.50201 14.3952C5.20707 14.5216 4.89563 14.6054 4.57705 14.6441C4.39701 14.6667 4.21572 14.6778 4.03427 14.6774C3.64421 14.6796 3.256 14.6237 2.88238 14.5116C2.78998 14.4835 2.69874 14.4517 2.60887 14.4163C2.33036 14.3089 2.07043 14.1584 1.83859 13.9704C1.72177 13.8746 1.61353 13.7688 1.51512 13.6542C1.26844 13.365 1.1021 13.0161 1.03274 12.6423C1.01911 12.5732 1.00818 12.5035 1 12.4335ZM51.8629 12.4335L53.006 12.2359C53.0813 12.6122 53.2789 12.9368 53.5988 13.2097C53.7867 13.3673 54.0079 13.4804 54.2457 13.5406C54.4413 13.5928 54.6584 13.6189 54.8971 13.6189C55.0877 13.6201 55.2778 13.6013 55.4645 13.5629C55.6879 13.5174 55.9018 13.4337 56.0967 13.3155C56.41 13.1231 56.5742 12.852 56.5896 12.5021C56.5903 12.4839 56.5907 12.4657 56.5907 12.4476C56.5927 12.2623 56.5446 12.0799 56.4515 11.9196C56.3585 11.7594 56.2238 11.6272 56.0619 11.5372C55.9251 11.4508 55.7618 11.3765 55.572 11.3145C55.4111 11.2628 55.2469 11.2217 55.0806 11.1915L54.1633 11.0222C53.9027 10.9771 53.6475 10.9048 53.402 10.8064C53.1161 10.6923 52.8512 10.5315 52.6179 10.3306C52.2889 10.0449 52.081 9.64458 52.0366 9.21107C52.024 9.10961 52.0179 9.00747 52.0181 8.90524C52.0157 8.66652 52.0605 8.42969 52.1499 8.20834C52.2111 8.06072 52.2926 7.92239 52.3921 7.79738C52.5852 7.55588 52.8244 7.35528 53.0959 7.20732C53.1925 7.15377 53.2921 7.10575 53.3941 7.06351C53.7373 6.92255 54.101 6.83801 54.4712 6.81314C54.5707 6.80592 54.6704 6.80235 54.7701 6.80242C55.0755 6.80104 55.3799 6.835 55.6774 6.90361C55.7978 6.9318 55.9165 6.96633 56.0332 7.00706C56.4237 7.14348 56.753 7.35988 57.0211 7.65625C57.1848 7.83983 57.3108 8.05385 57.3917 8.28611C57.4517 8.45245 57.495 8.63455 57.5219 8.83242L57.5221 8.83467L56.4213 9.00403C56.3917 8.86805 56.3452 8.7363 56.2829 8.61183C56.1813 8.40626 56.0207 8.23569 55.8215 8.12197C55.5811 7.98671 55.3152 7.90271 55.0407 7.87528C54.9508 7.86559 54.8605 7.86078 54.7701 7.86089C54.5981 7.85986 54.4263 7.87627 54.2575 7.90986C54.0498 7.95059 53.8508 8.02714 53.6693 8.13609C53.3682 8.31955 53.2177 8.57123 53.2177 8.89113C53.2151 9.00935 53.2378 9.12676 53.2841 9.23556C53.3304 9.34436 53.3994 9.44204 53.4864 9.52211C53.5089 9.54331 53.5322 9.56351 53.5564 9.58266C53.6387 9.64642 53.7274 9.70134 53.8212 9.74651C54.0015 9.83542 54.2257 9.91182 54.4938 9.9757C54.5387 9.98639 54.5838 9.9965 54.629 10.006L55.6734 10.2177C56.3414 10.3495 56.8588 10.5917 57.2258 10.9446C57.4796 11.1911 57.6524 11.509 57.7211 11.8561C57.759 12.0367 57.7774 12.2208 57.7762 12.4052C57.7782 12.6356 57.7424 12.8647 57.6702 13.0835C57.6069 13.2709 57.5141 13.4469 57.3951 13.6048C57.191 13.8744 56.9324 14.0979 56.6361 14.2608C56.548 14.3102 56.4575 14.355 56.3649 14.3952C56.0699 14.5216 55.7585 14.6054 55.4399 14.6441C55.2599 14.6667 55.0786 14.6778 54.8971 14.6774C54.5071 14.6796 54.1189 14.6237 53.7453 14.5116C53.6529 14.4835 53.5616 14.4517 53.4717 14.4163C53.1932 14.3089 52.9333 14.1584 52.7015 13.9704C52.5846 13.8746 52.4764 13.7688 52.378 13.6542C52.1313 13.365 51.965 13.0161 51.8956 12.6423C51.882 12.5732 51.8711 12.5035 51.8629 12.4335ZM65.8629 12.4335L67.006 12.2359C67.0813 12.6122 67.2789 12.9368 67.5987 13.2097C67.7867 13.3673 68.0079 13.4804 68.2457 13.5406C68.4413 13.5928 68.6584 13.6189 68.8971 13.6189C69.0877 13.6201 69.2778 13.6013 69.4645 13.5629C69.6879 13.5174 69.9018 13.4337 70.0967 13.3155C70.4099 13.1231 70.5742 12.852 70.5896 12.5021C70.5903 12.4839 70.5907 12.4657 70.5907 12.4476C70.5927 12.2623 70.5446 12.0799 70.4515 11.9196C70.3584 11.7594 70.2238 11.6272 70.0619 11.5372C69.9251 11.4508 69.7618 11.3765 69.572 11.3145C69.4111 11.2628 69.2469 11.2217 69.0806 11.1915L68.1633 11.0222C67.9027 10.9771 67.6475 10.9048 67.402 10.8064C67.1161 10.6923 66.8512 10.5315 66.6179 10.3306C66.2889 10.0449 66.081 9.64458 66.0366 9.21107C66.024 9.10961 66.0179 9.00747 66.0181 8.90524C66.0157 8.66652 66.0605 8.42969 66.1499 8.20834C66.2111 8.06072 66.2926 7.92239 66.3921 7.79738C66.5852 7.55588 66.8244 7.35528 67.0959 7.20732C67.1925 7.15377 67.2921 7.10575 67.3941 7.06351C67.7373 6.92255 68.101 6.83801 68.4712 6.81314C68.5707 6.80592 68.6704 6.80235 68.7701 6.80242C69.0754 6.80104 69.3799 6.835 69.6774 6.90361C69.7978 6.9318 69.9165 6.96633 70.0332 7.00706C70.4237 7.14348 70.753 7.35988 71.0211 7.65625C71.1848 7.83983 71.3108 8.05385 71.3917 8.28611C71.4517 8.45245 71.495 8.63455 71.5219 8.83242L71.5221 8.83467L70.4213 9.00403C70.3917 8.86805 70.3452 8.7363 70.2829 8.61183C70.1813 8.40626 70.0206 8.23569 69.8215 8.12197C69.5811 7.98671 69.3152 7.90271 69.0407 7.87528C68.9508 7.86559 68.8605 7.86078 68.7701 7.86089C68.598 7.85986 68.4263 7.87627 68.2575 7.90986C68.0498 7.95059 67.8508 8.02714 67.6693 8.13609C67.3682 8.31955 67.2177 8.57123 67.2177 8.89113C67.2151 9.00935 67.2378 9.12676 67.2841 9.23556C67.3304 9.34436 67.3994 9.44204 67.4864 9.52211C67.5089 9.54331 67.5322 9.56351 67.5564 9.58266C67.6387 9.64642 67.7274 9.70134 67.8212 9.74651C68.0015 9.83542 68.2257 9.91182 68.4938 9.9757C68.5387 9.98639 68.5838 9.9965 68.629 10.006L69.6733 10.2177C70.3414 10.3495 70.8588 10.5917 71.2258 10.9446C71.4796 11.1911 71.6524 11.509 71.7211 11.8561C71.7589 12.0367 71.7774 12.2208 71.7762 12.4052C71.7782 12.6356 71.7424 12.8647 71.6702 13.0835C71.6069 13.2709 71.514 13.4469 71.3951 13.6048C71.191 13.8744 70.9324 14.0979 70.6361 14.2608C70.548 14.3102 70.4575 14.355 70.3649 14.3952C70.0699 14.5216 69.7585 14.6054 69.4399 14.6441C69.2599 14.6667 69.0786 14.6778 68.8971 14.6774C68.5071 14.6796 68.1189 14.6237 67.7452 14.5116C67.6528 14.4835 67.5616 14.4517 67.4717 14.4163C67.1932 14.3089 66.9333 14.1584 66.7014 13.9704C66.5846 13.8746 66.4764 13.7688 66.378 13.6542C66.1313 13.365 65.965 13.0161 65.8956 12.6423C65.882 12.5732 65.871 12.5035 65.8629 12.4335ZM28.9718 14.4516H27.7863V7.02822H28.9153V8.00201H28.9718C29.1051 7.74604 29.2926 7.52223 29.5213 7.34619C29.6178 7.27071 29.7194 7.20219 29.8256 7.14113C30.216 6.91532 30.6653 6.80242 31.1734 6.80242C31.4293 6.80043 31.6846 6.82693 31.9346 6.88145C32.292 6.96236 32.5998 7.10537 32.858 7.31048C32.9445 7.3792 33.0253 7.45471 33.0998 7.53629C33.3779 7.84534 33.5733 8.21969 33.6678 8.62453C33.736 8.89851 33.7701 9.19907 33.7701 9.52621V14.4516H32.5847V9.68145C32.5847 9.03226 32.4224 8.57123 32.0978 8.29839C31.8353 8.07932 31.5138 7.94281 31.1739 7.90605C31.0801 7.8946 30.9856 7.88895 30.8911 7.88911C30.713 7.88785 30.5354 7.90996 30.363 7.95488C30.1867 8.00137 30.0194 8.07692 29.8679 8.17843C29.581 8.3713 29.3599 8.62533 29.2046 8.94052C29.0494 9.25571 28.9718 9.60618 28.9718 9.99193V14.4516ZM45.1662 20.5H43.9738V7.02822H45.1028V8.11492H45.1592C45.2741 7.90039 45.4252 7.70735 45.6059 7.54433C45.7427 7.41863 45.9006 7.30154 46.0794 7.19306L46.0836 7.19052C46.5117 6.93179 46.9892 6.80242 47.5161 6.80242C47.8425 6.79998 48.1675 6.84417 48.4814 6.93367C48.7597 7.01444 49.0243 7.13672 49.2661 7.29637C49.7648 7.62567 50.1505 8.08669 50.4234 8.67943C50.59 9.04693 50.705 9.43571 50.765 9.83471C50.8111 10.1342 50.8337 10.4369 50.8326 10.7399C50.8326 11.5208 50.6939 12.2077 50.4163 12.8004C50.2701 13.1187 50.0777 13.4136 49.8453 13.6757C49.672 13.8689 49.475 14.0395 49.259 14.1835C48.8643 14.444 48.4125 14.6053 47.942 14.6538C47.8006 14.6698 47.6584 14.6777 47.5161 14.6774C47.2835 14.6788 47.0513 14.6565 46.8232 14.6109C46.5503 14.5571 46.2884 14.4579 46.0484 14.3175C45.893 14.2265 45.746 14.122 45.6089 14.0054C45.4503 13.8688 45.3188 13.7223 45.2144 13.5659C45.1952 13.5371 45.1768 13.5077 45.1592 13.4778H45.1028L45.1592 14.4516L45.1662 20.5ZM26.1351 10.9657H20.6028C20.6302 11.5746 20.7558 12.0827 20.9796 12.4901C21.0612 12.6396 21.1597 12.7792 21.2732 12.9062C21.4588 13.1157 21.6857 13.2844 21.9398 13.4017C22.1939 13.519 22.4695 13.5824 22.7492 13.5879C22.7911 13.5898 22.8331 13.5907 22.875 13.5907C23.2585 13.5907 23.5819 13.5386 23.8452 13.4342C23.9815 13.3816 24.1089 13.3082 24.2228 13.2167C24.5285 12.9674 24.752 12.6452 24.8931 12.25L25.9375 12.5323C25.7923 13.1118 25.4642 13.6291 25.0018 14.0075C24.9822 14.024 24.9625 14.0403 24.9425 14.0564C24.6677 14.274 24.3519 14.4341 24.0139 14.527C23.7641 14.599 23.4905 14.6452 23.193 14.6656C23.073 14.6736 22.9528 14.6775 22.8326 14.6774C22.5043 14.6799 22.1772 14.6369 21.8607 14.5497C21.5615 14.4659 21.2774 14.3351 21.0191 14.1623C20.5206 13.8266 20.1214 13.363 19.8634 12.8202C19.8533 12.7995 19.8434 12.7788 19.8337 12.7581C19.6312 12.3199 19.502 11.8515 19.4512 11.3715C19.4283 11.1665 19.417 10.9603 19.4173 10.754C19.4152 10.3718 19.4554 9.99051 19.537 9.61709C19.6059 9.30546 19.7102 9.00271 19.8478 8.71472C20.0162 8.35706 20.2427 8.02977 20.5181 7.74615C20.6787 7.5827 20.8561 7.43666 21.0474 7.31048C21.5024 7.01199 22.0283 6.83941 22.5717 6.81032C22.6539 6.80501 22.7362 6.80237 22.8185 6.80242C23.1588 6.79962 23.4983 6.83685 23.8299 6.91335C24.388 7.03663 24.8962 7.32499 25.2883 7.74093C25.651 8.13578 25.9064 8.61715 26.0298 9.13895C26.1104 9.45884 26.1545 9.80734 26.1622 10.1844C26.1629 10.2238 26.1633 10.2631 26.1633 10.3024C26.1633 10.4247 26.1609 10.5447 26.1562 10.6623C26.1527 10.7523 26.1477 10.8327 26.1413 10.9035C26.1394 10.9243 26.1374 10.945 26.1351 10.9657ZM17.8649 14.4516H16.6794V1H17.8649V14.4516ZM10.6288 14.5637C10.9462 14.6414 11.272 14.6796 11.5988 14.6774C11.8165 14.6781 12.0338 14.6617 12.249 14.6284C12.6847 14.5641 13.1024 14.4102 13.4758 14.1764C14.0027 13.8424 14.4096 13.379 14.6966 12.7863C14.9835 12.1935 15.127 11.5114 15.127 10.7399C15.1281 10.4483 15.1061 10.157 15.0614 9.86887C14.9992 9.4588 14.8763 9.0603 14.6966 8.68649C14.4096 8.09845 14.0027 7.63743 13.4758 7.30343C13.1912 7.12399 12.8793 6.99196 12.5524 6.9125C12.2402 6.83723 11.9199 6.80027 11.5988 6.80242C10.8743 6.80242 10.2463 6.96942 9.71471 7.30343C9.18313 7.63743 8.7715 8.09845 8.47983 8.68649C8.32133 9.00944 8.20652 9.35205 8.13844 9.7053C8.07274 10.0462 8.04055 10.3927 8.04233 10.7399C8.04165 10.9955 8.05891 11.2508 8.09399 11.504C8.15355 11.9492 8.28381 12.3821 8.47983 12.7863C8.48096 12.7886 8.48209 12.7909 8.48322 12.7932C8.75536 13.361 9.18222 13.8404 9.71471 14.1764C9.99704 14.353 10.3056 14.4837 10.6288 14.5637ZM37.9231 14.5637C38.2406 14.6414 38.5663 14.6796 38.8931 14.6774C39.1108 14.6781 39.3282 14.6617 39.5433 14.6284C39.9791 14.5641 40.3968 14.4102 40.7701 14.1764C41.297 13.8424 41.7039 13.379 41.9909 12.7863C42.2779 12.1935 42.4213 11.5114 42.4213 10.7399C42.4224 10.4483 42.4004 10.157 42.3557 9.86887C42.2936 9.4588 42.1706 9.0603 41.9909 8.68649C41.7039 8.09845 41.297 7.63743 40.7701 7.30343C40.4855 7.12399 40.1737 6.99196 39.8467 6.9125C39.5345 6.83723 39.2143 6.80027 38.8931 6.80242C38.1687 6.80242 37.5406 6.96942 37.009 7.30343C36.4775 7.63743 36.0658 8.09845 35.7742 8.68649C35.6157 9.00944 35.5009 9.35205 35.4328 9.7053C35.3671 10.0462 35.3349 10.3927 35.3367 10.7399C35.336 10.9955 35.3532 11.2508 35.3883 11.504C35.4479 11.9492 35.5781 12.3821 35.7742 12.7863C35.7753 12.7886 35.7764 12.7909 35.7776 12.7932C36.0497 13.361 36.4766 13.8404 37.009 14.1764C37.2914 14.353 37.5999 14.4837 37.9231 14.5637ZM11.5988 13.5907C11.8845 13.594 12.1685 13.5455 12.4369 13.4476C12.7686 13.3215 13.0629 13.1134 13.2923 12.8427C13.5214 12.5735 13.69 12.2583 13.7867 11.9183C13.8609 11.6707 13.9085 11.3981 13.9292 11.1006C13.9375 10.9806 13.9416 10.8603 13.9415 10.7399C13.9433 10.4638 13.9199 10.188 13.8717 9.91615C13.815 9.60877 13.7239 9.33361 13.5983 9.09068C13.5147 8.92784 13.412 8.77556 13.2923 8.63709C13.1026 8.4134 12.8683 8.23174 12.6043 8.10372C12.3404 7.97571 12.0527 7.90415 11.7595 7.89363C11.706 7.89058 11.6524 7.88907 11.5988 7.88911C11.2806 7.88518 10.9651 7.94687 10.6718 8.07032C10.3756 8.20036 10.1115 8.39384 9.89818 8.63709C9.50462 9.07629 9.28436 9.67237 9.23741 10.4253C9.23095 10.5301 9.22775 10.635 9.22782 10.7399C9.226 11.0162 9.25015 11.292 9.29993 11.5637C9.36005 11.8792 9.45757 12.1607 9.59249 12.4083C9.67719 12.5645 9.77978 12.7103 9.89818 12.8427C10.0947 13.0689 10.3359 13.2518 10.6067 13.3801C10.8775 13.5083 11.1719 13.579 11.4713 13.5878C11.5138 13.5897 11.5563 13.5907 11.5988 13.5907ZM38.8931 13.5907C39.1789 13.594 39.4628 13.5455 39.7313 13.4476C40.0629 13.3215 40.3572 13.1134 40.5867 12.8427C40.8157 12.5735 40.9843 12.2583 41.081 11.9183C41.1553 11.6707 41.2028 11.3981 41.2236 11.1006C41.2319 10.9806 41.236 10.8603 41.2359 10.7399C41.2376 10.4638 41.2142 10.188 41.166 9.91615C41.1094 9.60877 41.0182 9.33361 40.8926 9.09068C40.8091 8.92784 40.7064 8.77556 40.5867 8.63709C40.3969 8.4134 40.1626 8.23174 39.8987 8.10372C39.6347 7.97571 39.347 7.90415 39.0539 7.89363C39.0003 7.89058 38.9467 7.88907 38.8931 7.88911C38.575 7.88518 38.2594 7.94687 37.9662 8.07032C37.6699 8.20036 37.4058 8.39384 37.1925 8.63709C36.799 9.07629 36.5787 9.67237 36.5318 10.4253C36.5253 10.5301 36.5221 10.635 36.5222 10.7399C36.5203 11.0162 36.5445 11.292 36.5943 11.5637C36.6544 11.8792 36.7519 12.1607 36.8868 12.4083C36.9715 12.5645 37.0741 12.7103 37.1925 12.8427C37.389 13.0689 37.6303 13.2518 37.901 13.3801C38.1718 13.5083 38.4662 13.579 38.7657 13.5878C38.8081 13.5897 38.8506 13.5907 38.8931 13.5907ZM47.3891 13.5907C47.6733 13.5941 47.9554 13.5429 48.2203 13.44C48.5304 13.3141 48.8047 13.1138 49.0191 12.8569C49.2234 12.6129 49.3767 12.3304 49.4699 12.0262C49.5456 11.7907 49.5971 11.5301 49.6243 11.2443C49.6399 11.0766 49.6475 10.9083 49.6471 10.7399C49.6487 10.4717 49.6282 10.2037 49.5858 9.93887C49.5381 9.65153 49.4624 9.39303 49.3587 9.16336C49.2718 8.968 49.1574 8.78603 49.0191 8.62298C48.838 8.40477 48.613 8.22707 48.3588 8.10143C48.1045 7.97578 47.8267 7.90498 47.5433 7.89363C47.492 7.89061 47.4405 7.8891 47.3891 7.88911C47.06 7.88468 46.7343 7.95524 46.4366 8.09544C46.1753 8.22357 45.9425 8.40298 45.752 8.62298C45.5344 8.8742 45.3721 9.16831 45.2754 9.48627C45.1603 9.84662 45.1028 10.2645 45.1028 10.7399C45.1012 11.0082 45.1224 11.2762 45.1662 11.541C45.2167 11.8346 45.2973 12.0981 45.4081 12.3316C45.4974 12.522 45.6132 12.6988 45.752 12.8569C45.9395 13.0772 46.1709 13.256 46.4314 13.3819C46.692 13.5077 46.9759 13.5778 47.265 13.5878C47.3064 13.5897 47.3477 13.5907 47.3891 13.5907ZM20.6593 9.97782H24.9214C24.9034 9.36636 24.7371 8.87306 24.4226 8.49794C24.4081 8.48055 24.3932 8.46343 24.378 8.44657C24.0752 8.11059 23.6353 7.92275 23.0582 7.88304C22.9784 7.87762 22.8985 7.87493 22.8185 7.875C22.5691 7.87251 22.3211 7.91236 22.0851 7.99284C21.8299 8.08251 21.5965 8.22511 21.4002 8.41129C21.0652 8.72554 20.8339 9.16694 20.7061 9.7355C20.6882 9.8158 20.6725 9.89661 20.6593 9.97782Z" fill="#9D489D" stroke="#9D489D" stroke-width="0.4" stroke-linecap="round"/>
</svg>
